<?xml version="1.0" encoding="utf-8"?>
<!-- Generator: Adobe Illustrator 16.0.0, SVG Export Plug-In . SVG Version: 6.00 Build 0)  -->
<!DOCTYPE svg PUBLIC "-//W3C//DTD SVG 1.1//EN" "http://www.w3.org/Graphics/SVG/1.1/DTD/svg11.dtd">
<svg version="1.1" id="Layer_1" xmlns="http://www.w3.org/2000/svg" xmlns:xlink="http://www.w3.org/1999/xlink" x="0px" y="0px"
	 width="37px" height="48px" viewBox="0 0 37 48" enable-background="new 0 0 37 48" xml:space="preserve">
<path id="path3787" fill="#FFFFFF" d="M24.316,4.093c-2.677,0-4.937,1.869-5.568,4.354H4.811c-0.922,0-1.387,0.619-1.413,1.391
	v18.958c0,0.75,0.616,1.392,1.413,1.392h14.01c0.622,2.488,2.889,4.354,5.559,4.354c3.156,0,5.75-2.589,5.75-5.745
	s-2.594-5.762-5.75-5.762c-2.66,0-4.934,1.864-5.559,4.355H6.201V11.246h12.547c0.632,2.481,2.892,4.354,5.568,4.354
	c3.156,0,5.74-2.607,5.74-5.764S27.473,4.093,24.316,4.093z M24.316,6.955c1.608,0,2.876,1.27,2.876,2.882
	c0,1.609-1.268,2.9-2.876,2.9c-1.624,0-2.884-1.291-2.884-2.9C21.433,8.225,22.692,6.955,24.316,6.955z M14.498,13.538
	c-3.154,0-5.76,2.584-5.76,5.739s2.605,5.736,5.76,5.736c2.675,0,4.92-1.835,5.548-4.322h12.553v16.063H20.046
	c-0.628-2.49-2.873-4.355-5.548-4.355c-3.154,0-5.76,2.584-5.76,5.74s2.605,5.769,5.76,5.769c2.675,0,4.92-1.862,5.548-4.355h13.959
	c0.819-0.038,1.393-0.541,1.393-1.413V19.277c0-0.862-0.545-1.393-1.393-1.393H20.046C19.418,15.397,17.173,13.538,14.498,13.538
	L14.498,13.538z M14.498,16.397c1.616,0,2.864,1.266,2.864,2.88s-1.248,2.885-2.864,2.885c-1.609,0-2.897-1.271-2.897-2.885
	S12.889,16.397,14.498,16.397z M24.38,25.889c1.624,0,2.886,1.291,2.886,2.906c0,1.614-1.262,2.875-2.886,2.875
	c-1.605,0-2.875-1.261-2.875-2.875C21.505,27.18,22.774,25.889,24.38,25.889z M14.498,35.264c1.616,0,2.864,1.268,2.864,2.875
	c0,1.622-1.248,2.928-2.864,2.928c-1.609,0-2.897-1.306-2.897-2.928C11.601,36.531,12.889,35.264,14.498,35.264L14.498,35.264z"/>
</svg>
